<svg id="Capa_1" enable-background="new 0 0 512 512" height="512" viewBox="0 0 512 512" width="512" xmlns="http://www.w3.org/2000/svg"><g><path d="m497 464.725c-16.555 0-24.023-3.719-33.479-8.428-3.902-1.943-7.994-3.977-12.72-5.79l50.664-133.282c3.943-10.374 3.289-21.98-1.796-31.844s-14.16-17.13-24.896-19.935l-34.886-9.115v-104.627c0-21.958-17.864-39.822-39.822-39.822h-68.851v-38.714c0-30.82-25.074-55.894-55.894-55.894h-38.639c-30.82 0-55.894 25.074-55.894 55.894v38.713h-68.851c-21.958 0-39.822 17.864-39.822 39.822v104.628l-34.886 9.115c-10.737 2.805-19.812 10.071-24.896 19.935s-5.74 21.47-1.796 31.844l50.664 133.284c-4.724 1.813-8.816 3.846-12.717 5.789-9.457 4.708-16.926 8.428-33.483 8.428-8.284 0-15 6.716-15 15s6.716 15 15 15c23.612 0 35.96-6.148 46.854-11.572 9.457-4.708 16.926-8.428 33.483-8.428s24.026 3.719 33.483 8.428c10.894 5.424 23.242 11.572 46.854 11.572 23.611 0 35.958-6.148 46.853-11.572 9.456-4.708 16.925-8.428 33.48-8.428s24.023 3.719 33.479 8.428c10.894 5.424 23.241 11.572 46.852 11.572s35.958-6.148 46.852-11.572c9.456-4.708 16.925-8.428 33.48-8.428s24.023 3.719 33.479 8.428c10.894 5.424 23.241 11.572 46.852 11.572 8.284 0 15-6.716 15-15s-6.717-15.001-15.001-15.001zm-286.213-391.557c0-14.278 11.616-25.894 25.894-25.894h38.639c14.278 0 25.894 11.616 25.894 25.894v38.713h-90.427zm-108.674 78.536c0-5.416 4.406-9.822 9.822-9.822h288.129c5.416 0 9.822 4.406 9.822 9.822v96.789l-150.095-39.218c-2.486-.649-5.098-.649-7.584 0l-150.095 39.218v-96.789zm267.704 304.594c-9.456 4.708-16.925 8.427-33.479 8.427s-24.023-3.719-33.479-8.428c-10.894-5.424-23.241-11.572-46.852-11.572s-35.958 6.148-46.853 11.572c-9.456 4.708-16.925 8.428-33.48 8.428-16.556 0-24.026-3.719-33.482-8.428-10.894-5.424-23.242-11.572-46.854-11.572-1.447 0-2.851.024-4.216.068l-52.545-138.228c-1.261-3.317-.278-6.083.42-7.437s2.381-3.759 5.814-4.656l211.189-55.181 211.189 55.182c3.433.896 5.116 3.301 5.814 4.655s1.681 4.12.42 7.438l-52.544 138.228c-1.363-.044-2.765-.068-4.21-.068-23.611-.001-35.958 6.148-46.852 11.572z"/><path d="m394.677 316.055-134.885-35.244c-2.486-.649-5.098-.649-7.584 0l-134.885 35.244c-8.015 2.094-12.815 10.29-10.721 18.305s10.29 12.814 18.305 10.721l131.093-34.253 131.093 34.253c1.271.333 2.547.491 3.802.491 6.659 0 12.741-4.468 14.502-11.212 2.095-8.015-2.705-16.211-10.72-18.305z"/></g></svg>